<svg width="38" height="38" viewBox="0 0 38 38" fill="none" xmlns="http://www.w3.org/2000/svg">
<circle opacity="0.1" cx="19" cy="19" r="19" fill="currentColor"/>
<g clip-path="url(#clip0_8888_1261)">
<path d="M26.5 19C26.5 23.1421 23.1421 26.5 19 26.5C14.8579 26.5 11.5 23.1421 11.5 19C11.5 14.8579 14.8579 11.5 19 11.5C23.1421 11.5 26.5 14.8579 26.5 19Z" stroke="currentColor" stroke-width="1.5" stroke-linecap="round" stroke-linejoin="round"/>
<path d="M16.0635 20.359L19.1613 13.4748C19.2065 13.3744 19.3572 13.4101 19.3524 13.5202L19.1409 18.3957C19.1384 18.4525 19.1839 18.5 19.2408 18.5H21.8467C21.9189 18.5 21.9673 18.5742 21.9382 18.6403L19.3279 24.5653C19.2843 24.6643 19.1364 24.6332 19.1364 24.525V20.6C19.1364 20.5448 19.0916 20.5 19.0364 20.5H16.1547C16.0821 20.5 16.0337 20.4251 16.0635 20.359Z" stroke="currentColor" stroke-width="1.5" stroke-linecap="round" stroke-linejoin="round"/>
</g>
<defs>
<clipPath id="clip0_8888_1261">
<rect width="18" height="18" fill="white" transform="translate(10 10)"/>
</clipPath>
</defs>
</svg>
