<svg width="24" height="24" viewBox="0 0 24 24" fill="none" xmlns="http://www.w3.org/2000/svg">
<g clip-path="url(#clip0_11770_25849)">
<path d="M11.9999 13.1111V9.78799C11.9999 9.78799 11.9999 9.78799 11.9999 9.78799C11.9999 9.78799 11.9999 6.98966 11.9999 6.19618M14.5286 3.46471C13.4194 1.51176 10.5806 1.51176 9.47143 3.46471L1.3768 17.7178C0.288974 19.6333 1.6865 22 3.90537 22H20.0946C22.3135 22 23.711 19.6333 22.6232 17.7178L14.5286 3.46471Z" stroke="#4D5E80" stroke-width="2" stroke-linecap="round" stroke-linejoin="round"/>
<path fill-rule="evenodd" clip-rule="evenodd" d="M13.4505 17.6901C13.4505 18.4836 12.801 19.1269 11.9999 19.1269C11.1988 19.1269 10.5493 18.4836 10.5493 17.6901C10.5493 16.8967 11.1988 16.2534 11.9999 16.2534C12.801 16.2534 13.4505 16.8967 13.4505 17.6901Z" stroke="#4D5E80" stroke-width="2" stroke-linecap="round" stroke-linejoin="round"/>
</g>
<defs>
<clipPath id="clip0_11770_25849">
<rect width="24" height="24" fill="white"/>
</clipPath>
</defs>
</svg>
