<svg width="178" height="53" viewBox="0 0 178 53" fill="none" xmlns="http://www.w3.org/2000/svg">
<path fill-rule="evenodd" clip-rule="evenodd" d="M4.88746 1.50003C2.20373 1.50003 0.0281353 3.67563 0.0281353 6.35936L0.0281353 44.2621C0.0281353 46.9458 2.20373 49.1214 4.88746 49.1214L21.4092 49.1214C24.0929 49.1214 26.2685 46.9458 26.2685 44.2621L26.2685 6.35935C26.2685 3.67563 24.0929 1.50003 21.4092 1.50003L4.88746 1.50003ZM16.0069 19.2198C19.1178 19.2198 21.6432 16.5549 21.6432 13.2812C21.6432 9.99601 19.1178 7.3311 16.0069 7.3311L7.21387 7.3311C6.46772 7.3311 5.85932 7.9399 5.85932 8.68653C5.85932 9.43316 6.46772 10.042 7.21387 10.042L16.0069 10.042C17.614 10.042 18.9341 11.4893 18.9341 13.2697C18.9341 15.0616 17.6255 16.509 16.0069 16.509L7.21387 16.509C6.46772 16.509 5.85932 17.1178 5.85932 17.8644C5.85932 18.611 6.46772 19.2198 7.21387 19.2198L16.0069 19.2198ZM5.88216 43.8642C5.88216 43.4162 6.01991 43.0486 6.29541 42.7729C6.57091 42.4858 6.93824 42.3479 7.37445 42.3479L20.1048 42.3479C20.5525 42.3479 20.9084 42.4972 21.1839 42.7729C21.4594 43.0601 21.5971 43.4162 21.5971 43.8642C21.5971 44.3121 21.4594 44.6682 21.1839 44.9439C20.9084 45.2196 20.5525 45.3574 20.1048 45.3574L7.37445 45.3574C6.92676 45.3574 6.57091 45.2196 6.29541 44.9439C6.01991 44.6682 5.88216 44.3121 5.88216 43.8642ZM21.6661 22.149C21.6661 25.4227 19.1292 28.1221 16.0069 28.1221L7.21387 28.1221C6.46772 28.1221 5.85932 27.5133 5.85932 26.7666C5.85932 26.02 6.46772 25.4112 7.21387 25.4112L8.86687 25.4112L8.86687 24.5842C8.86687 23.7571 9.54414 23.0794 10.3706 23.0794C11.1971 23.0794 11.8744 23.7571 11.8744 24.5842L11.8744 25.4112L16.0069 25.4112C17.6025 25.4112 18.9571 23.895 18.9571 22.1375C18.9571 21.6781 18.8652 21.2416 18.716 20.8395C19.554 20.4605 20.3116 19.9091 20.9429 19.2199C21.4021 20.0929 21.6661 21.0922 21.6661 22.149ZM20.3115 29.2964L11.5184 29.2964C8.41906 29.2964 5.88216 31.9613 5.88216 35.235C5.88216 38.5087 8.40758 41.1736 11.5184 41.1736L20.3115 41.1736C21.0576 41.1736 21.666 40.5648 21.666 39.8182C21.666 39.0715 21.0576 38.4627 20.3115 38.4627L11.5184 38.4627C9.91135 38.4627 8.59124 37.0154 8.59124 35.235C8.59124 33.4545 9.89987 32.0072 11.5184 32.0072L20.3115 32.0072C21.0576 32.0072 21.666 31.3984 21.666 30.6518C21.666 29.9051 21.0576 29.2964 20.3115 29.2964Z" fill="#81DDA0"/>
<path d="M43.7982 4.70897C42.9764 3.88766 41.8806 3.47701 40.5451 3.47701C39.2096 3.47701 38.148 3.88766 37.3262 4.70897C36.5043 5.53029 36.0934 6.59115 36.0934 7.92578V45.8772C36.0934 47.2119 36.5043 48.2727 37.3262 49.0941C38.148 49.9154 39.2096 50.326 40.5451 50.326C41.8806 50.326 42.9421 49.9154 43.7982 49.0941C44.6201 48.2727 45.0652 47.2119 45.0652 45.8772V7.92578C45.0652 6.62537 44.6543 5.53029 43.7982 4.70897Z" fill="#81DDA0"/>
<path fill-rule="evenodd" clip-rule="evenodd" d="M74.0748 49.8337C86.8758 49.8337 97.2531 39.4564 97.2531 26.6554C97.2531 13.8543 86.8758 3.47701 74.0748 3.47701C61.2737 3.47701 50.8964 13.8543 50.8964 26.6554C50.8964 39.4564 61.2737 49.8337 74.0748 49.8337ZM61.5869 33.8125L76.4915 6.39261L71.8976 24.197L85.8835 20.8158L70.4174 48.1828L75.6238 30.3784L61.5869 33.8125Z" fill="#81DDA0"/>
<path fill-rule="evenodd" clip-rule="evenodd" d="M138.492 20.2797V46.4932C138.492 48.7176 136.677 50.5314 134.452 50.5314C132.226 50.5314 130.411 48.7176 130.411 46.4932V20.2797C130.411 15.4545 126.096 11.5532 120.788 11.5532C115.481 11.5532 111.166 15.4887 111.166 20.2797V46.4932C111.166 48.7176 109.351 50.5314 107.125 50.5314C104.899 50.5314 103.084 48.7176 103.084 46.4932V20.2797C103.084 11.0057 111.029 3.47701 120.788 3.47701C130.548 3.47701 138.492 11.0399 138.492 20.2797Z" fill="#81DDA0"/>
<path fill-rule="evenodd" clip-rule="evenodd" d="M158.183 3.47704L168.05 3.47704C169.592 3.47702 171.897 4.93482 171.897 7.85041C171.897 10.766 170.187 11.7379 168.159 11.7379L158.291 11.7379C155.609 11.7379 152.46 13.3289 152.46 17.1262C152.46 23.8862 158.769 22.7303 163.761 23.3578C166.904 23.3578 166.469 30.7311 162.988 30.7311C153.833 30.7311 144.324 28.3915 144.324 17.1262C144.324 9.30821 151.63 3.47704 158.183 3.47704Z" fill="#81DDA0"/>
<path fill-rule="evenodd" clip-rule="evenodd" d="M161.718 50.5347L148.975 50.5347C147.415 50.5347 145.171 49.3187 145.171 46.906C145.171 44.4933 147.415 42.8646 148.975 42.8646L161.718 42.8646C164.371 42.8646 167.838 41.3797 167.838 37.0235C167.838 31.6611 164.733 30.6828 160.845 30.6828L157.949 30.2089C156.389 30.2089 156.079 27.9502 156.079 26.3739C156.079 24.7976 157.342 24.2264 158.902 24.2264L162.303 23.2613C172.022 23.2613 175.423 30.7235 175.423 37.0235C175.423 43.3235 170.564 50.2838 161.718 50.5347Z" fill="#81DDA0"/>
</svg>
