<svg width="27" height="27" viewBox="0 0 27 27" fill="none" xmlns="http://www.w3.org/2000/svg">
    <path
      d="M23.5341 7.83789H3.46651C3.30523 7.83789 3.15055 7.90196 3.03651 8.016C2.92247 8.13004 2.8584 8.28472 2.8584 8.446V10.0484C2.8584 10.2096 2.92247 10.3643 3.03651 10.4784C3.15055 10.5924 3.30523 10.6565 3.46651 10.6565H23.5341C23.6954 10.6565 23.85 10.5924 23.9641 10.4784C24.0781 10.3643 24.1422 10.2096 24.1422 10.0484V8.446C24.1422 8.28472 24.0781 8.13004 23.9641 8.016C23.85 7.90196 23.6954 7.83789 23.5341 7.83789Z"
      fill="currentColor"
    />
    <path
      d="M3.84668 22.1295C3.84668 22.2101 3.87871 22.2875 3.93574 22.3445C3.99276 22.4015 4.07009 22.4335 4.15073 22.4335H22.8501C22.9307 22.4335 23.008 22.4015 23.0651 22.3445C23.1221 22.2875 23.1541 22.2101 23.1541 22.1295V11.2656H3.84668V22.1295ZM11.0467 17.3589L12.5122 14.0143C12.5364 13.9605 12.5757 13.9148 12.6254 13.883C12.6751 13.8511 12.7329 13.8344 12.792 13.8349H15.1271C15.1782 13.8348 15.2285 13.8475 15.2734 13.872C15.3183 13.8965 15.3563 13.9318 15.3838 13.9749C15.4114 14.0179 15.4277 14.0672 15.4312 14.1182C15.4347 14.1692 15.4252 14.2203 15.4038 14.2666L14.4916 16.2704H15.6896C15.7514 16.2699 15.8118 16.2883 15.8628 16.3231C15.9139 16.3578 15.9532 16.4073 15.9754 16.465C15.9975 16.5232 16.0011 16.5867 15.9859 16.6471C15.9707 16.7074 15.9373 16.7617 15.8903 16.8025L11.8281 20.3903C11.7783 20.4345 11.7152 20.4612 11.6488 20.4661C11.5823 20.4711 11.516 20.4541 11.4602 20.4177C11.4036 20.3807 11.361 20.326 11.3389 20.2621C11.3169 20.1983 11.3168 20.1289 11.3386 20.0649L12.1139 17.7876H11.3264C11.2755 17.7875 11.2255 17.7747 11.1809 17.7502C11.1363 17.7258 11.0985 17.6905 11.071 17.6477C11.0432 17.6054 11.0265 17.5568 11.0222 17.5064C11.018 17.4559 11.0264 17.4052 11.0467 17.3589Z"
      fill="currentColor"
    />
    <path
      d="M21.5056 6.37933C21.5056 6.29869 21.4736 6.22135 21.4166 6.16433C21.3596 6.10731 21.2822 6.07527 21.2016 6.07527H20.5691V5.01109C20.5691 4.93045 20.5371 4.85311 20.4801 4.79609C20.4231 4.73907 20.3457 4.70703 20.2651 4.70703H19.1097C19.029 4.70703 18.9517 4.73907 18.8947 4.79609C18.8377 4.85311 18.8056 4.93045 18.8056 5.01109V6.07527H18.1732C18.0926 6.07527 18.0152 6.10731 17.9582 6.16433C17.9012 6.22135 17.8691 6.29869 17.8691 6.37933V7.23068H21.5056V6.37933Z"
      fill="currentColor"
    />
    <path
      d="M9.13063 6.37933C9.13063 6.29869 9.09859 6.22135 9.04157 6.16433C8.98455 6.10731 8.90721 6.07527 8.82657 6.07527H8.19414V5.01109C8.19414 4.93045 8.16211 4.85311 8.10509 4.79609C8.04806 4.73907 7.97073 4.70703 7.89009 4.70703H6.73468C6.65404 4.70703 6.5767 4.73907 6.51968 4.79609C6.46266 4.85311 6.43063 4.93045 6.43063 5.01109V6.07527H5.79819C5.71755 6.07527 5.64022 6.10731 5.5832 6.16433C5.52617 6.22135 5.49414 6.29869 5.49414 6.37933V7.23068H9.13063V6.37933Z"
      fill="currentColor"
    />
  </svg>