<svg width="27" height="27" viewBox="0 0 27 27" fill="none" xmlns="http://www.w3.org/2000/svg">
    <path
      d="M23.5341 7.83789H3.46651C3.30523 7.83789 3.15055 7.90196 3.03651 8.016C2.92247 8.13004 2.8584 8.28472 2.8584 8.446V10.0484C2.8584 10.2096 2.92247 10.3643 3.03651 10.4784C3.15055 10.5924 3.30523 10.6565 3.46651 10.6565H23.5341C23.6954 10.6565 23.85 10.5924 23.9641 10.4784C24.0781 10.3643 24.1422 10.2096 24.1422 10.0484V8.446C24.1422 8.28472 24.0781 8.13004 23.9641 8.016C23.85 7.90196 23.6954 7.83789 23.5341 7.83789Z"
      fill="currentColor"
    />
    <path
      d="M21.5056 6.37933C21.5056 6.29869 21.4736 6.22135 21.4166 6.16433C21.3596 6.10731 21.2822 6.07527 21.2016 6.07527H20.5691V5.01109C20.5691 4.93045 20.5371 4.85311 20.4801 4.79609C20.4231 4.73907 20.3457 4.70703 20.2651 4.70703H19.1097C19.029 4.70703 18.9517 4.73907 18.8947 4.79609C18.8377 4.85311 18.8056 4.93045 18.8056 5.01109V6.07527H18.1732C18.0926 6.07527 18.0152 6.10731 17.9582 6.16433C17.9012 6.22135 17.8691 6.29869 17.8691 6.37933V7.23068H21.5056V6.37933Z"
      fill="currentColor"
    />
    <path
      d="M9.13063 6.37933C9.13063 6.29869 9.09859 6.22135 9.04157 6.16433C8.98455 6.10731 8.90721 6.07527 8.82657 6.07527H8.19414V5.01109C8.19414 4.93045 8.16211 4.85311 8.10509 4.79609C8.04806 4.73907 7.97073 4.70703 7.89009 4.70703H6.73468C6.65404 4.70703 6.5767 4.73907 6.51968 4.79609C6.46266 4.85311 6.43063 4.93045 6.43063 5.01109V6.07527H5.79819C5.71755 6.07527 5.64022 6.10731 5.5832 6.16433C5.52617 6.22135 5.49414 6.29869 5.49414 6.37933V7.23068H9.13063V6.37933Z"
      fill="currentColor"
    />
    <path
      fillRule="evenodd"
      clipRule="evenodd"
      d="M3.93574 22.3445C3.87871 22.2875 3.84668 22.2101 3.84668 22.1295V11.2656H23.1541V22.1295C23.1541 22.2101 23.1221 22.2875 23.0651 22.3445C23.008 22.4015 22.9307 22.4335 22.8501 22.4335H4.15073C4.07009 22.4335 3.99276 22.4015 3.93574 22.3445ZM10.3254 13.5005C10.2149 13.5005 10.1254 13.59 10.1254 13.7005V14.988C10.1254 15.0984 10.2149 15.188 10.3254 15.188H12.4566C12.5671 15.188 12.6566 15.2775 12.6566 15.388V17.5192C12.6566 17.6297 12.5671 17.7192 12.4566 17.7192H11.746C11.5747 17.7192 11.4827 17.9206 11.5948 18.0501L13.3492 20.0759C13.4289 20.168 13.5718 20.168 13.6516 20.0759L15.4059 18.0501C15.5181 17.9206 15.4261 17.7192 15.2547 17.7192H14.5441C14.4337 17.7192 14.3441 17.6297 14.3441 17.5192V15.388C14.3441 15.2775 14.4337 15.188 14.5441 15.188H16.6754C16.7858 15.188 16.8754 15.0984 16.8754 14.988V13.7005C16.8754 13.59 16.7858 13.5005 16.6754 13.5005H10.3254Z"
      fill="currentColor"
    />
  </svg>