<svg width="24" height="24" viewBox="0 0 24 24" fill="none" xmlns="http://www.w3.org/2000/svg">
<path d="M2.83333 5.33337V10.3334H7.83333" stroke="currentColor" stroke-width="1.5" stroke-linecap="round" stroke-linejoin="round"/>
<path d="M4.92499 14.5C5.46532 16.0337 6.48944 17.3502 7.84304 18.2512C9.19664 19.1522 10.8064 19.5889 12.4298 19.4954C14.0531 19.402 15.6021 18.7835 16.8434 17.7332C18.0847 16.6828 18.951 15.2575 19.3118 13.672C19.6727 12.0865 19.5084 10.4267 18.8438 8.94262C18.1793 7.45857 17.0504 6.2307 15.6274 5.44401C14.2043 4.65732 12.5641 4.35442 10.9539 4.58097C9.3437 4.80751 7.85076 5.55122 6.69999 6.70004L2.83333 10.3334" stroke="currentColor" stroke-width="1.5" stroke-linecap="round" stroke-linejoin="round"/>
<path d="M13.6364 9L10 12.3734H15L11.497 16" stroke="currentColor" stroke-width="1.5" stroke-linecap="round" stroke-linejoin="round"/>
</svg>
