<svg width="24" height="24" viewBox="0 0 24 24" fill="none" xmlns="http://www.w3.org/2000/svg">
<path d="M16.2307 1.38462H14.3751V0H9.52922V1.38462H7.7691C6.62376 1.38462 5.6923 2.31633 5.6923 3.46158V21.9231C5.6923 23.0681 6.62401 24 7.7691 24H16.2307C17.3764 24 18.3077 23.0681 18.3077 21.9231V3.46153C18.3077 2.31633 17.3764 1.38462 16.2307 1.38462ZM16.9233 21.9233C16.9233 22.3048 16.6126 22.6154 16.2307 22.6154H7.7691C7.3872 22.6154 7.07656 22.3054 7.07656 21.9233V3.46153C7.07656 3.07998 7.3872 2.76919 7.7691 2.76919H16.2307C16.6126 2.76919 16.9233 3.07993 16.9233 3.46153V21.9233ZM16.1683 21.796H7.83162V18.7584H16.1681V21.796H16.1683ZM16.1683 18.0101H7.83162V14.9726H16.1681V18.0101H16.1683ZM16.1683 14.2241H7.83162V11.1864H16.1681V14.2241H16.1683ZM16.1683 10.4467H7.83162V7.40907H16.1681V10.4467H16.1683Z" fill="#4D5E80"/>
</svg>
