<svg width="329" height="306" viewBox="0 0 329 306" fill="none" xmlns="http://www.w3.org/2000/svg">
<path fill-rule="evenodd" clip-rule="evenodd" d="M298.499 152.538L292.499 152.515C292.5 152.343 292.5 152.172 292.5 152C292.5 151.828 292.5 151.657 292.499 151.485L298.499 151.462C298.5 151.641 298.5 151.82 298.5 152C298.5 152.18 298.5 152.359 298.499 152.538ZM294.069 117.566L288.266 119.092C288.179 118.761 288.091 118.431 288.001 118.101L293.792 116.529C293.885 116.874 293.978 117.219 294.069 117.566ZM280.7 84.9533L275.495 87.9375C275.326 87.6415 275.155 87.3462 274.983 87.0517L280.164 84.0263C280.344 84.3345 280.523 84.6435 280.7 84.9533ZM259.337 56.92L255.078 61.1459C254.838 60.9036 254.596 60.6623 254.354 60.422L258.58 56.1626C258.833 56.4141 259.086 56.6666 259.337 56.92ZM231.474 35.3359L228.448 40.5173C228.154 40.3453 227.859 40.1745 227.563 40.0048L230.547 34.7996C230.856 34.9771 231.165 35.1559 231.474 35.3359ZM198.971 21.7083L197.399 27.4986C197.069 27.409 196.739 27.3208 196.408 27.2338L197.934 21.4312C198.281 21.5222 198.626 21.6146 198.971 21.7083ZM164.038 17.0011L164.015 23.001C163.843 23.0003 163.672 23 163.5 23C163.328 23 163.157 23.0003 162.985 23.001L162.962 17.0011C163.141 17.0004 163.32 17 163.5 17C163.68 17 163.859 17.0004 164.038 17.0011ZM129.066 21.4312L130.592 27.2338C130.261 27.3208 129.931 27.409 129.601 27.4986L128.029 21.7083C128.374 21.6146 128.719 21.5222 129.066 21.4312ZM96.4533 34.7996L99.4375 40.0048C99.1415 40.1745 98.8462 40.3453 98.5517 40.5173L95.5263 35.3359C95.8345 35.1559 96.1435 34.9771 96.4533 34.7996ZM68.42 56.1627L72.6459 60.422C72.4036 60.6623 72.1623 60.9036 71.922 61.1459L67.6626 56.92C67.9141 56.6666 68.1666 56.4141 68.42 56.1627ZM46.8359 84.0263L52.0173 87.0517C51.8453 87.3462 51.6745 87.6415 51.5048 87.9375L46.2996 84.9533C46.4771 84.6435 46.6559 84.3345 46.8359 84.0263ZM33.2083 116.529L38.9986 118.101C38.909 118.431 38.8208 118.761 38.7338 119.092L32.9312 117.566C33.0222 117.219 33.1146 116.874 33.2083 116.529ZM28.5011 151.462C28.5004 151.641 28.5 151.82 28.5 152C28.5 152.18 28.5004 152.359 28.5011 152.538L34.501 152.515C34.5003 152.343 34.5 152.172 34.5 152C34.5 151.828 34.5003 151.657 34.501 151.485L28.5011 151.462ZM32.9312 186.434L38.7338 184.908C38.8208 185.239 38.909 185.569 38.9986 185.899L33.2083 187.471C33.1146 187.126 33.0222 186.781 32.9312 186.434ZM46.2996 219.047L51.5048 216.063C51.6745 216.359 51.8453 216.654 52.0173 216.948L46.8359 219.974C46.6559 219.665 46.4771 219.356 46.2996 219.047ZM67.6627 247.08L71.922 242.854C72.1623 243.096 72.4036 243.338 72.6459 243.578L68.42 247.837C68.1666 247.586 67.9141 247.333 67.6627 247.08ZM95.5263 268.664L98.5517 263.483C98.8462 263.655 99.1415 263.826 99.4375 263.995L96.4533 269.2C96.1435 269.023 95.8345 268.844 95.5263 268.664ZM128.029 282.292L129.601 276.501C129.931 276.591 130.261 276.679 130.592 276.766L129.066 282.569C128.719 282.478 128.374 282.385 128.029 282.292ZM162.962 286.999L162.985 280.999C163.065 280.999 163.144 281 163.224 281C163.316 281 163.408 281 163.5 281C163.672 281 163.843 281 164.015 280.999L164.038 286.999C163.859 287 163.68 287 163.5 287C163.32 287 163.141 287 162.962 286.999ZM197.934 282.569L196.408 276.766C196.739 276.679 197.069 276.591 197.399 276.501L198.971 282.292C198.626 282.385 198.281 282.478 197.934 282.569ZM230.547 269.2L227.563 263.995C227.859 263.826 228.154 263.655 228.448 263.483L231.474 268.664C231.165 268.844 230.856 269.023 230.547 269.2ZM258.58 247.837L254.354 243.578C254.596 243.338 254.838 243.096 255.078 242.854L259.337 247.08C259.086 247.333 258.833 247.586 258.58 247.837ZM280.164 219.974L274.983 216.948C275.155 216.654 275.326 216.359 275.495 216.063L280.7 219.047C280.523 219.356 280.344 219.665 280.164 219.974ZM293.792 187.471L288.001 185.899C288.091 185.569 288.179 185.239 288.266 184.908L294.069 186.434C293.978 186.781 293.885 187.126 293.792 187.471Z" fill="#E5E5E5"/>
<path fill-rule="evenodd" clip-rule="evenodd" d="M298.497 152.921L292.497 152.881C292.499 152.588 292.5 152.294 292.5 152C292.5 151.706 292.499 151.412 292.497 151.119L298.497 151.079C298.499 151.386 298.5 151.693 298.5 152C298.5 152.307 298.499 152.614 298.497 152.921ZM164.421 17.0031C164.114 17.001 163.807 17 163.5 17C163.193 17 162.886 17.001 162.579 17.0031L162.619 23.0029C162.912 23.001 163.206 23 163.5 23C163.794 23 164.088 23.001 164.381 23.0029L164.421 17.0031ZM28.5031 151.079C28.501 151.386 28.5 151.693 28.5 152C28.5 152.307 28.501 152.614 28.5031 152.921L34.5029 152.881C34.501 152.588 34.5 152.294 34.5 152C34.5 151.706 34.501 151.412 34.5029 151.119L28.5031 151.079ZM162.579 286.997L162.619 280.997C162.912 280.999 163.206 281 163.5 281C163.794 281 164.088 280.999 164.381 280.997L164.421 286.997C164.114 286.999 163.807 287 163.5 287C163.193 287 162.886 286.999 162.579 286.997Z" fill="#C3CAD9"/>
<path d="M1.95 155C1.95 154.38 2.03 153.783 2.19 153.21C2.35 152.637 2.55667 152.093 2.81 151.58C3.07 151.067 3.35333 150.59 3.66 150.15C3.96667 149.71 4.26667 149.313 4.56 148.96H0.89V148.14H5.72V148.69C5.47333 148.977 5.21667 149.297 4.95 149.65C4.69 149.997 4.44 150.367 4.2 150.76C3.96 151.147 3.74333 151.55 3.55 151.97C3.35667 152.39 3.20333 152.817 3.09 153.25C2.97667 153.677 2.92 154.103 2.92 154.53V155H1.95ZM9.12734 155.12C8.64734 155.12 8.22734 155.03 7.86734 154.85C7.50734 154.67 7.22734 154.413 7.02734 154.08C6.82734 153.74 6.72734 153.337 6.72734 152.87H7.61734C7.61734 153.183 7.68401 153.453 7.81734 153.68C7.95068 153.907 8.13068 154.08 8.35734 154.2C8.59068 154.32 8.84734 154.38 9.12734 154.38C9.41401 154.38 9.66734 154.323 9.88734 154.21C10.1073 154.09 10.2773 153.91 10.3973 153.67C10.524 153.43 10.5873 153.127 10.5873 152.76C10.5873 152.427 10.5307 152.153 10.4173 151.94C10.304 151.72 10.1407 151.557 9.92734 151.45C9.72068 151.343 9.48068 151.29 9.20734 151.29C9.00734 151.29 8.81734 151.323 8.63734 151.39C8.45734 151.45 8.29401 151.537 8.14734 151.65C8.00734 151.763 7.89068 151.903 7.79734 152.07L6.96734 151.94L7.25734 148.14H11.1473V148.96H8.02734L7.86734 151.1C7.98068 151 8.10734 150.91 8.24734 150.83C8.39401 150.743 8.56068 150.677 8.74734 150.63C8.93401 150.577 9.14734 150.55 9.38734 150.55C9.78068 150.55 10.1373 150.627 10.4573 150.78C10.7773 150.933 11.0307 151.17 11.2173 151.49C11.404 151.81 11.4973 152.223 11.4973 152.73C11.4973 153.23 11.4007 153.66 11.2073 154.02C11.0207 154.38 10.7507 154.653 10.3973 154.84C10.044 155.027 9.62068 155.12 9.12734 155.12ZM14.0302 155L18.9802 148.14H19.7802L14.8202 155H14.0302ZM14.5802 151.63C14.2669 151.63 13.9936 151.577 13.7602 151.47C13.5336 151.357 13.3602 151.17 13.2402 150.91C13.1202 150.65 13.0602 150.29 13.0602 149.83C13.0602 149.363 13.1202 149 13.2402 148.74C13.3602 148.48 13.5336 148.297 13.7602 148.19C13.9936 148.077 14.2669 148.02 14.5802 148.02C14.9002 148.02 15.1702 148.077 15.3902 148.19C15.6102 148.297 15.7802 148.48 15.9002 148.74C16.0269 149 16.0902 149.363 16.0902 149.83C16.0902 150.29 16.0269 150.653 15.9002 150.92C15.7802 151.18 15.6102 151.363 15.3902 151.47C15.1702 151.577 14.9002 151.63 14.5802 151.63ZM14.5802 151.04C14.8802 151.04 15.0802 150.94 15.1802 150.74C15.2802 150.533 15.3302 150.247 15.3302 149.88V149.78C15.3302 149.533 15.3102 149.323 15.2702 149.15C15.2302 148.977 15.1536 148.843 15.0402 148.75C14.9336 148.657 14.7802 148.61 14.5802 148.61C14.2869 148.61 14.0869 148.713 13.9802 148.92C13.8736 149.12 13.8202 149.407 13.8202 149.78V149.88C13.8202 150.247 13.8736 150.533 13.9802 150.74C14.0869 150.94 14.2869 151.04 14.5802 151.04ZM19.2202 155.12C18.9069 155.12 18.6369 155.067 18.4102 154.96C18.1836 154.847 18.0102 154.66 17.8902 154.4C17.7702 154.14 17.7102 153.78 17.7102 153.32C17.7102 152.853 17.7702 152.49 17.8902 152.23C18.0102 151.97 18.1836 151.787 18.4102 151.68C18.6369 151.567 18.9069 151.51 19.2202 151.51C19.5402 151.51 19.8102 151.567 20.0302 151.68C20.2569 151.787 20.4302 151.97 20.5502 152.23C20.6702 152.49 20.7302 152.853 20.7302 153.32C20.7302 153.78 20.6702 154.143 20.5502 154.41C20.4302 154.67 20.2569 154.853 20.0302 154.96C19.8102 155.067 19.5402 155.12 19.2202 155.12ZM19.2202 154.53C19.5269 154.53 19.7269 154.43 19.8202 154.23C19.9202 154.023 19.9702 153.733 19.9702 153.36V153.27C19.9702 153.023 19.9502 152.813 19.9102 152.64C19.8702 152.467 19.7969 152.333 19.6902 152.24C19.5836 152.147 19.4269 152.1 19.2202 152.1C18.9269 152.1 18.7269 152.203 18.6202 152.41C18.5202 152.61 18.4702 152.897 18.4702 153.27V153.36C18.4702 153.733 18.5202 154.023 18.6202 154.23C18.7269 154.43 18.9269 154.53 19.2202 154.53Z" fill="#98A2B2"/>
<path d="M307 155V154.71C307 154.43 307.053 154.173 307.16 153.94C307.273 153.7 307.42 153.483 307.6 153.29C307.787 153.09 307.997 152.9 308.23 152.72C308.463 152.54 308.7 152.363 308.94 152.19C309.267 151.963 309.567 151.737 309.84 151.51C310.12 151.283 310.343 151.04 310.51 150.78C310.677 150.513 310.76 150.217 310.76 149.89C310.76 149.683 310.71 149.497 310.61 149.33C310.517 149.157 310.373 149.02 310.18 148.92C309.987 148.82 309.74 148.77 309.44 148.77C309.087 148.77 308.803 148.83 308.59 148.95C308.377 149.07 308.22 149.23 308.12 149.43C308.027 149.63 307.98 149.85 307.98 150.09V150.5H307.11C307.103 150.467 307.097 150.417 307.09 150.35C307.083 150.277 307.08 150.193 307.08 150.1C307.08 149.607 307.19 149.21 307.41 148.91C307.63 148.603 307.923 148.38 308.29 148.24C308.657 148.093 309.053 148.02 309.48 148.02C309.86 148.02 310.187 148.073 310.46 148.18C310.733 148.28 310.96 148.42 311.14 148.6C311.32 148.78 311.453 148.987 311.54 149.22C311.627 149.447 311.67 149.687 311.67 149.94C311.67 150.253 311.613 150.54 311.5 150.8C311.393 151.06 311.24 151.303 311.04 151.53C310.847 151.75 310.617 151.963 310.35 152.17C310.09 152.377 309.807 152.587 309.5 152.8C309.287 152.94 309.077 153.09 308.87 153.25C308.663 153.403 308.487 153.56 308.34 153.72C308.193 153.88 308.1 154.033 308.06 154.18H311.71V155H307ZM315.274 155.12C314.794 155.12 314.374 155.03 314.014 154.85C313.654 154.67 313.374 154.413 313.174 154.08C312.974 153.74 312.874 153.337 312.874 152.87H313.764C313.764 153.183 313.83 153.453 313.964 153.68C314.097 153.907 314.277 154.08 314.504 154.2C314.737 154.32 314.994 154.38 315.274 154.38C315.56 154.38 315.814 154.323 316.034 154.21C316.254 154.09 316.424 153.91 316.544 153.67C316.67 153.43 316.734 153.127 316.734 152.76C316.734 152.427 316.677 152.153 316.564 151.94C316.45 151.72 316.287 151.557 316.074 151.45C315.867 151.343 315.627 151.29 315.354 151.29C315.154 151.29 314.964 151.323 314.784 151.39C314.604 151.45 314.44 151.537 314.294 151.65C314.154 151.763 314.037 151.903 313.944 152.07L313.114 151.94L313.404 148.14H317.294V148.96H314.174L314.014 151.1C314.127 151 314.254 150.91 314.394 150.83C314.54 150.743 314.707 150.677 314.894 150.63C315.08 150.577 315.294 150.55 315.534 150.55C315.927 150.55 316.284 150.627 316.604 150.78C316.924 150.933 317.177 151.17 317.364 151.49C317.55 151.81 317.644 152.223 317.644 152.73C317.644 153.23 317.547 153.66 317.354 154.02C317.167 154.38 316.897 154.653 316.544 154.84C316.19 155.027 315.767 155.12 315.274 155.12ZM320.177 155L325.127 148.14H325.927L320.967 155H320.177ZM320.727 151.63C320.413 151.63 320.14 151.577 319.907 151.47C319.68 151.357 319.507 151.17 319.387 150.91C319.267 150.65 319.207 150.29 319.207 149.83C319.207 149.363 319.267 149 319.387 148.74C319.507 148.48 319.68 148.297 319.907 148.19C320.14 148.077 320.413 148.02 320.727 148.02C321.047 148.02 321.317 148.077 321.537 148.19C321.757 148.297 321.927 148.48 322.047 148.74C322.173 149 322.237 149.363 322.237 149.83C322.237 150.29 322.173 150.653 322.047 150.92C321.927 151.18 321.757 151.363 321.537 151.47C321.317 151.577 321.047 151.63 320.727 151.63ZM320.727 151.04C321.027 151.04 321.227 150.94 321.327 150.74C321.427 150.533 321.477 150.247 321.477 149.88V149.78C321.477 149.533 321.457 149.323 321.417 149.15C321.377 148.977 321.3 148.843 321.187 148.75C321.08 148.657 320.927 148.61 320.727 148.61C320.433 148.61 320.233 148.713 320.127 148.92C320.02 149.12 319.967 149.407 319.967 149.78V149.88C319.967 150.247 320.02 150.533 320.127 150.74C320.233 150.94 320.433 151.04 320.727 151.04ZM325.367 155.12C325.053 155.12 324.783 155.067 324.557 154.96C324.33 154.847 324.157 154.66 324.037 154.4C323.917 154.14 323.857 153.78 323.857 153.32C323.857 152.853 323.917 152.49 324.037 152.23C324.157 151.97 324.33 151.787 324.557 151.68C324.783 151.567 325.053 151.51 325.367 151.51C325.687 151.51 325.957 151.567 326.177 151.68C326.403 151.787 326.577 151.97 326.697 152.23C326.817 152.49 326.877 152.853 326.877 153.32C326.877 153.78 326.817 154.143 326.697 154.41C326.577 154.67 326.403 154.853 326.177 154.96C325.957 155.067 325.687 155.12 325.367 155.12ZM325.367 154.53C325.673 154.53 325.873 154.43 325.967 154.23C326.067 154.023 326.117 153.733 326.117 153.36V153.27C326.117 153.023 326.097 152.813 326.057 152.64C326.017 152.467 325.943 152.333 325.837 152.24C325.73 152.147 325.573 152.1 325.367 152.1C325.073 152.1 324.873 152.203 324.767 152.41C324.667 152.61 324.617 152.897 324.617 153.27V153.36C324.617 153.733 324.667 154.023 324.767 154.23C324.873 154.43 325.073 154.53 325.367 154.53Z" fill="#98A2B2"/>
<path d="M157.4 304.12C156.92 304.12 156.5 304.03 156.14 303.85C155.78 303.67 155.5 303.413 155.3 303.08C155.1 302.74 155 302.337 155 301.87H155.89C155.89 302.183 155.957 302.453 156.09 302.68C156.223 302.907 156.403 303.08 156.63 303.2C156.863 303.32 157.12 303.38 157.4 303.38C157.687 303.38 157.94 303.323 158.16 303.21C158.38 303.09 158.55 302.91 158.67 302.67C158.797 302.43 158.86 302.127 158.86 301.76C158.86 301.427 158.803 301.153 158.69 300.94C158.577 300.72 158.413 300.557 158.2 300.45C157.993 300.343 157.753 300.29 157.48 300.29C157.28 300.29 157.09 300.323 156.91 300.39C156.73 300.45 156.567 300.537 156.42 300.65C156.28 300.763 156.163 300.903 156.07 301.07L155.24 300.94L155.53 297.14H159.42V297.96H156.3L156.14 300.1C156.253 300 156.38 299.91 156.52 299.83C156.667 299.743 156.833 299.677 157.02 299.63C157.207 299.577 157.42 299.55 157.66 299.55C158.053 299.55 158.41 299.627 158.73 299.78C159.05 299.933 159.303 300.17 159.49 300.49C159.677 300.81 159.77 301.223 159.77 301.73C159.77 302.23 159.673 302.66 159.48 303.02C159.293 303.38 159.023 303.653 158.67 303.84C158.317 304.027 157.893 304.12 157.4 304.12ZM163.283 304.12C162.91 304.12 162.576 304.067 162.283 303.96C161.99 303.847 161.74 303.657 161.533 303.39C161.326 303.117 161.17 302.753 161.063 302.3C160.956 301.84 160.903 301.263 160.903 300.57C160.903 299.877 160.956 299.303 161.063 298.85C161.17 298.39 161.326 298.027 161.533 297.76C161.74 297.487 161.99 297.297 162.283 297.19C162.576 297.077 162.91 297.02 163.283 297.02C163.656 297.02 163.986 297.077 164.273 297.19C164.566 297.297 164.816 297.487 165.023 297.76C165.23 298.027 165.386 298.39 165.493 298.85C165.6 299.303 165.653 299.877 165.653 300.57C165.653 301.263 165.6 301.84 165.493 302.3C165.386 302.753 165.23 303.117 165.023 303.39C164.816 303.657 164.566 303.847 164.273 303.96C163.986 304.067 163.656 304.12 163.283 304.12ZM163.283 303.38C163.663 303.38 163.956 303.283 164.163 303.09C164.376 302.897 164.523 302.61 164.603 302.23C164.69 301.85 164.733 301.377 164.733 300.81V300.35C164.733 299.777 164.69 299.3 164.603 298.92C164.523 298.533 164.376 298.243 164.163 298.05C163.956 297.857 163.663 297.76 163.283 297.76C162.903 297.76 162.606 297.857 162.393 298.05C162.18 298.243 162.03 298.53 161.943 298.91C161.863 299.29 161.823 299.767 161.823 300.34V300.79C161.823 301.357 161.863 301.833 161.943 302.22C162.03 302.607 162.18 302.897 162.393 303.09C162.606 303.283 162.903 303.38 163.283 303.38ZM168.235 304L173.185 297.14H173.985L169.025 304H168.235ZM168.785 300.63C168.472 300.63 168.199 300.577 167.965 300.47C167.739 300.357 167.565 300.17 167.445 299.91C167.325 299.65 167.265 299.29 167.265 298.83C167.265 298.363 167.325 298 167.445 297.74C167.565 297.48 167.739 297.297 167.965 297.19C168.199 297.077 168.472 297.02 168.785 297.02C169.105 297.02 169.375 297.077 169.595 297.19C169.815 297.297 169.985 297.48 170.105 297.74C170.232 298 170.295 298.363 170.295 298.83C170.295 299.29 170.232 299.653 170.105 299.92C169.985 300.18 169.815 300.363 169.595 300.47C169.375 300.577 169.105 300.63 168.785 300.63ZM168.785 300.04C169.085 300.04 169.285 299.94 169.385 299.74C169.485 299.533 169.535 299.247 169.535 298.88V298.78C169.535 298.533 169.515 298.323 169.475 298.15C169.435 297.977 169.359 297.843 169.245 297.75C169.139 297.657 168.985 297.61 168.785 297.61C168.492 297.61 168.292 297.713 168.185 297.92C168.079 298.12 168.025 298.407 168.025 298.78V298.88C168.025 299.247 168.079 299.533 168.185 299.74C168.292 299.94 168.492 300.04 168.785 300.04ZM173.425 304.12C173.112 304.12 172.842 304.067 172.615 303.96C172.389 303.847 172.215 303.66 172.095 303.4C171.975 303.14 171.915 302.78 171.915 302.32C171.915 301.853 171.975 301.49 172.095 301.23C172.215 300.97 172.389 300.787 172.615 300.68C172.842 300.567 173.112 300.51 173.425 300.51C173.745 300.51 174.015 300.567 174.235 300.68C174.462 300.787 174.635 300.97 174.755 301.23C174.875 301.49 174.935 301.853 174.935 302.32C174.935 302.78 174.875 303.143 174.755 303.41C174.635 303.67 174.462 303.853 174.235 303.96C174.015 304.067 173.745 304.12 173.425 304.12ZM173.425 303.53C173.732 303.53 173.932 303.43 174.025 303.23C174.125 303.023 174.175 302.733 174.175 302.36V302.27C174.175 302.023 174.155 301.813 174.115 301.64C174.075 301.467 174.002 301.333 173.895 301.24C173.789 301.147 173.632 301.1 173.425 301.1C173.132 301.1 172.932 301.203 172.825 301.41C172.725 301.61 172.675 301.897 172.675 302.27V302.36C172.675 302.733 172.725 303.023 172.825 303.23C172.932 303.43 173.132 303.53 173.425 303.53Z" fill="#98A2B2"/>
<path d="M152.17 9V8.25H153.9V3.5H152.16V2.94C152.407 2.92 152.66 2.88333 152.92 2.83C153.187 2.77667 153.447 2.69333 153.7 2.58C153.953 2.46 154.183 2.30667 154.39 2.12H154.79V8.25H156.42V9H152.17ZM159.785 9.12C159.412 9.12 159.078 9.06667 158.785 8.96C158.492 8.84667 158.242 8.65667 158.035 8.39C157.828 8.11667 157.672 7.75333 157.565 7.3C157.458 6.84 157.405 6.26333 157.405 5.57C157.405 4.87667 157.458 4.30333 157.565 3.85C157.672 3.39 157.828 3.02667 158.035 2.76C158.242 2.48667 158.492 2.29667 158.785 2.19C159.078 2.07667 159.412 2.02 159.785 2.02C160.158 2.02 160.488 2.07667 160.775 2.19C161.068 2.29667 161.318 2.48667 161.525 2.76C161.732 3.02667 161.888 3.39 161.995 3.85C162.102 4.30333 162.155 4.87667 162.155 5.57C162.155 6.26333 162.102 6.84 161.995 7.3C161.888 7.75333 161.732 8.11667 161.525 8.39C161.318 8.65667 161.068 8.84667 160.775 8.96C160.488 9.06667 160.158 9.12 159.785 9.12ZM159.785 8.38C160.165 8.38 160.458 8.28333 160.665 8.09C160.878 7.89667 161.025 7.61 161.105 7.23C161.192 6.85 161.235 6.37667 161.235 5.81V5.35C161.235 4.77667 161.192 4.3 161.105 3.92C161.025 3.53333 160.878 3.24333 160.665 3.05C160.458 2.85667 160.165 2.76 159.785 2.76C159.405 2.76 159.108 2.85667 158.895 3.05C158.682 3.24333 158.532 3.53 158.445 3.91C158.365 4.29 158.325 4.76667 158.325 5.34V5.79C158.325 6.35667 158.365 6.83333 158.445 7.22C158.532 7.60667 158.682 7.89667 158.895 8.09C159.108 8.28333 159.405 8.38 159.785 8.38ZM165.717 9.12C165.344 9.12 165.011 9.06667 164.717 8.96C164.424 8.84667 164.174 8.65667 163.967 8.39C163.761 8.11667 163.604 7.75333 163.497 7.3C163.391 6.84 163.337 6.26333 163.337 5.57C163.337 4.87667 163.391 4.30333 163.497 3.85C163.604 3.39 163.761 3.02667 163.967 2.76C164.174 2.48667 164.424 2.29667 164.717 2.19C165.011 2.07667 165.344 2.02 165.717 2.02C166.091 2.02 166.421 2.07667 166.707 2.19C167.001 2.29667 167.251 2.48667 167.457 2.76C167.664 3.02667 167.821 3.39 167.927 3.85C168.034 4.30333 168.087 4.87667 168.087 5.57C168.087 6.26333 168.034 6.84 167.927 7.3C167.821 7.75333 167.664 8.11667 167.457 8.39C167.251 8.65667 167.001 8.84667 166.707 8.96C166.421 9.06667 166.091 9.12 165.717 9.12ZM165.717 8.38C166.097 8.38 166.391 8.28333 166.597 8.09C166.811 7.89667 166.957 7.61 167.037 7.23C167.124 6.85 167.167 6.37667 167.167 5.81V5.35C167.167 4.77667 167.124 4.3 167.037 3.92C166.957 3.53333 166.811 3.24333 166.597 3.05C166.391 2.85667 166.097 2.76 165.717 2.76C165.337 2.76 165.041 2.85667 164.827 3.05C164.614 3.24333 164.464 3.53 164.377 3.91C164.297 4.29 164.257 4.76667 164.257 5.34V5.79C164.257 6.35667 164.297 6.83333 164.377 7.22C164.464 7.60667 164.614 7.89667 164.827 8.09C165.041 8.28333 165.337 8.38 165.717 8.38ZM170.67 9L175.62 2.14H176.42L171.46 9H170.67ZM171.22 5.63C170.906 5.63 170.633 5.57667 170.4 5.47C170.173 5.35667 170 5.17 169.88 4.91C169.76 4.65 169.7 4.29 169.7 3.83C169.7 3.36333 169.76 3 169.88 2.74C170 2.48 170.173 2.29667 170.4 2.19C170.633 2.07667 170.906 2.02 171.22 2.02C171.54 2.02 171.81 2.07667 172.03 2.19C172.25 2.29667 172.42 2.48 172.54 2.74C172.666 3 172.73 3.36333 172.73 3.83C172.73 4.29 172.666 4.65333 172.54 4.92C172.42 5.18 172.25 5.36333 172.03 5.47C171.81 5.57667 171.54 5.63 171.22 5.63ZM171.22 5.04C171.52 5.04 171.72 4.94 171.82 4.74C171.92 4.53333 171.97 4.24667 171.97 3.88V3.78C171.97 3.53333 171.95 3.32333 171.91 3.15C171.87 2.97667 171.793 2.84333 171.68 2.75C171.573 2.65667 171.42 2.61 171.22 2.61C170.926 2.61 170.726 2.71333 170.62 2.92C170.513 3.12 170.46 3.40667 170.46 3.78V3.88C170.46 4.24667 170.513 4.53333 170.62 4.74C170.726 4.94 170.926 5.04 171.22 5.04ZM175.86 9.12C175.546 9.12 175.276 9.06667 175.05 8.96C174.823 8.84667 174.65 8.66 174.53 8.4C174.41 8.14 174.35 7.78 174.35 7.32C174.35 6.85333 174.41 6.49 174.53 6.23C174.65 5.97 174.823 5.78667 175.05 5.68C175.276 5.56667 175.546 5.51 175.86 5.51C176.18 5.51 176.45 5.56667 176.67 5.68C176.896 5.78667 177.07 5.97 177.19 6.23C177.31 6.49 177.37 6.85333 177.37 7.32C177.37 7.78 177.31 8.14333 177.19 8.41C177.07 8.67 176.896 8.85333 176.67 8.96C176.45 9.06667 176.18 9.12 175.86 9.12ZM175.86 8.53C176.166 8.53 176.366 8.43 176.46 8.23C176.56 8.02333 176.61 7.73333 176.61 7.36V7.27C176.61 7.02333 176.59 6.81333 176.55 6.64C176.51 6.46667 176.436 6.33333 176.33 6.24C176.223 6.14667 176.066 6.1 175.86 6.1C175.566 6.1 175.366 6.20333 175.26 6.41C175.16 6.61 175.11 6.89667 175.11 7.27V7.36C175.11 7.73333 175.16 8.02333 175.26 8.23C175.366 8.43 175.566 8.53 175.86 8.53Z" fill="#98A2B2"/>
</svg>
