<svg width="38" height="38" viewBox="0 0 38 38" fill="none" xmlns="http://www.w3.org/2000/svg">
<circle opacity="0.1" cx="19" cy="19" r="19" fill="currentColor"/>
<path d="M20.6464 11.6464C20.5527 11.5527 20.4255 11.5 20.2929 11.5H14.5C14.1022 11.5 13.7206 11.658 13.4393 11.9393C13.158 12.2206 13 12.6022 13 13V25C13 25.3978 13.158 25.7794 13.4393 26.0607C13.7206 26.342 14.1022 26.5 14.5 26.5H23.5C23.8978 26.5 24.2794 26.342 24.5607 26.0607C24.842 25.7794 25 25.3978 25 25V16.2071C25 16.0745 24.9473 15.9473 24.8536 15.8536L20.6464 11.6464Z" stroke="currentColor" stroke-width="1.5" stroke-linecap="round" stroke-linejoin="round"/>
<path d="M20.5 11.5V15.5C20.5 15.7761 20.7239 16 21 16H25" stroke="currentColor" stroke-width="1.5" stroke-linecap="round" stroke-linejoin="round"/>
<path d="M22 19.75H16" stroke="currentColor" stroke-width="1.5" stroke-linecap="round" stroke-linejoin="round"/>
<path d="M22 22.75H16" stroke="currentColor" stroke-width="1.5" stroke-linecap="round" stroke-linejoin="round"/>
<path d="M17.5 16.75H16.75H16" stroke="currentColor" stroke-width="1.5" stroke-linecap="round" stroke-linejoin="round"/>
</svg>
