<svg width="38" height="38" viewBox="0 0 38 38" fill="none" xmlns="http://www.w3.org/2000/svg">
<circle opacity="0.1" cx="19" cy="19" r="19" fill="currentColor"/>
<path d="M23.5 25C22.6716 25 22 24.3704 22 23.5938V18.9062C22 18.1296 22.6716 17.5 23.5 17.5C24.3284 17.5 25 18.1296 25 18.9062V23.5938C25 24.3704 24.3284 25 23.5 25Z" stroke="currentColor" stroke-width="1.5" stroke-linecap="round" stroke-linejoin="round"/>
<path d="M25 22.75C25 26.125 24.625 26.875 19 26.875" stroke="currentColor" stroke-width="1.5" stroke-linecap="round" stroke-linejoin="round"/>
<path d="M14.5 25C13.6716 25 13 24.3704 13 23.5938V18.9062C13 18.1296 13.6716 17.5 14.5 17.5C15.3284 17.5 16 18.1296 16 18.9062V23.5938C16 24.3704 15.3284 25 14.5 25Z" stroke="currentColor" stroke-width="1.5" stroke-linecap="round" stroke-linejoin="round"/>
<path d="M13 22.25C13 22.5261 12.7676 22.758 12.5137 22.6493C11.924 22.3968 11.5 21.6978 11.5 20.875C11.5 20.0522 11.924 19.3532 12.5137 19.1007C12.7676 18.992 13 19.2239 13 19.5V22.25Z" stroke="currentColor" stroke-width="1.5" stroke-linecap="round" stroke-linejoin="round"/>
<path d="M25.4863 22.6493C25.2324 22.758 25 22.5261 25 22.25V19.5C25 19.2239 25.2324 18.992 25.4863 19.1007C26.076 19.3532 26.5 20.0522 26.5 20.875C26.5 21.6978 26.076 22.3968 25.4863 22.6493Z" stroke="currentColor" stroke-width="1.5" stroke-linecap="round" stroke-linejoin="round"/>
<path d="M11.5 21.25V19.3C11.5 14.9922 14.8751 11.5 19 11.5C23.1249 11.5 26.5 14.9922 26.5 19.3V21.25" stroke="currentColor" stroke-width="1.5" stroke-linecap="round" stroke-linejoin="round"/>
<circle cx="19.375" cy="26.875" r="1.125" stroke="currentColor" stroke-width="1.5" stroke-linecap="round" stroke-linejoin="round"/>
</svg>
