<svg width="38" height="38" viewBox="0 0 38 38" fill="none" xmlns="http://www.w3.org/2000/svg">
<g clip-path="url(#clip0_11741_101066)">
<circle opacity="0.1" cx="19" cy="19" r="19" fill="currentColor"/>
<path fill-rule="evenodd" clip-rule="evenodd" d="M10.4969 21.9764C10.4838 22.5838 10.9656 23.0867 11.573 23.0998L14.9722 23.1728L14.8992 26.572C14.8862 27.1793 15.368 27.6823 15.9754 27.6953C16.5827 27.7084 17.0857 27.2266 17.0987 26.6192L17.1846 22.6201C17.2036 21.7367 16.5028 21.0051 15.6193 20.9861L11.6203 20.9003C11.0129 20.8872 10.5099 21.369 10.4969 21.9764Z" fill="currentColor"/>
<path fill-rule="evenodd" clip-rule="evenodd" d="M19 13C15.6863 13 13 15.6863 13 19C13 19.4142 12.6642 19.75 12.25 19.75C11.8358 19.75 11.5 19.4142 11.5 19C11.5 14.8579 14.8579 11.5 19 11.5C23.1421 11.5 26.5 14.8579 26.5 19C26.5 23.1421 23.1421 26.5 19 26.5C18.5858 26.5 18.25 26.1642 18.25 25.75C18.25 25.3358 18.5858 25 19 25C22.3137 25 25 22.3137 25 19C25 15.6863 22.3137 13 19 13Z" fill="currentColor"/>
</g>
<defs>
<clipPath id="clip0_11741_101066">
<rect width="38" height="38" fill="white"/>
</clipPath>
</defs>
</svg>
