  <svg
    width="200"
    height="150"
    viewBox="0 0 457 348"
    fill="none"
    xmlns="http://www.w3.org/2000/svg"
  >
    <g clipPath="url(#clip0_2465_28141)">
      <path
        fillRule="evenodd"
        clipRule="evenodd"
        d="M357.195 182.401C353.557 182.401 350.068 180.957 347.496 178.386C344.924 175.815 343.479 172.329 343.479 168.693C343.479 165.058 344.924 161.571 347.496 159C350.068 156.429 353.557 154.985 357.195 154.985C360.833 154.985 364.322 156.429 366.894 159C369.467 161.571 370.912 165.058 370.912 168.693C370.912 172.329 369.467 175.815 366.894 178.386C364.322 180.957 360.833 182.401 357.195 182.401ZM359.82 175.026C358.988 175.37 358.096 175.547 357.195 175.547C355.377 175.547 353.632 174.825 352.346 173.539C351.061 172.254 350.338 170.511 350.338 168.693C350.338 166.876 351.061 165.132 352.346 163.847C353.632 162.562 355.377 161.84 357.195 161.839C358.096 161.839 358.988 162.016 359.82 162.361C360.652 162.705 361.409 163.21 362.046 163.846C362.683 164.483 363.188 165.238 363.533 166.07C363.877 166.902 364.055 167.793 364.055 168.693C364.055 169.593 363.877 170.485 363.533 171.316C363.188 172.148 362.683 172.904 362.046 173.54C361.409 174.177 360.652 174.681 359.82 175.026Z"
        fill="#D7D7D7"
      />
      <path
        fillRule="evenodd"
        clipRule="evenodd"
        d="M265.426 263.189C267.516 266.689 267.063 271.276 264.023 274.315C263.175 275.166 262.168 275.841 261.058 276.302C259.949 276.763 258.759 277 257.558 277C256.356 277 255.166 276.763 254.057 276.302C252.947 275.841 251.94 275.166 251.092 274.315L239.959 263.189L230.81 254.05L228.46 251.697C227.32 250.564 226.501 249.151 226.083 247.6C225.666 246.049 225.665 244.415 226.082 242.864L221.766 238.546C215.283 243.369 207.215 245.563 199.18 244.688C191.146 243.813 183.74 239.933 178.449 233.828C173.158 227.722 170.373 219.843 170.654 211.771C170.935 203.699 174.26 196.032 179.962 190.308C185.681 184.573 193.363 181.218 201.459 180.921C209.555 180.624 217.463 183.406 223.587 188.706C229.711 194.007 233.596 201.431 234.458 209.482C235.32 217.532 233.095 225.61 228.231 232.085L232.552 236.403C234.104 235.985 235.738 235.983 237.291 236.4C238.843 236.816 240.257 237.636 241.39 238.775L256.675 254.05L265.426 263.189ZM223.718 221.67C222.569 224.442 220.885 226.961 218.762 229.083C214.474 233.368 208.659 235.776 202.595 235.776C196.531 235.776 190.715 233.368 186.427 229.083C182.139 224.798 179.731 218.986 179.731 212.926C179.731 206.866 182.139 201.054 186.427 196.769C188.55 194.647 191.071 192.964 193.845 191.816C196.619 190.668 199.592 190.076 202.595 190.076C205.597 190.076 208.57 190.668 211.344 191.816C214.118 192.964 216.639 194.647 218.762 196.769C220.885 198.891 222.569 201.41 223.718 204.182C224.868 206.954 225.459 209.925 225.459 212.926C225.459 215.927 224.868 218.898 223.718 221.67Z"
        fill="#D7D7D7"
      />
      <path
        fillRule="evenodd"
        clipRule="evenodd"
        d="M134.853 263.189C134.253 263.189 133.659 263.071 133.105 262.842C132.55 262.612 132.047 262.275 131.624 261.851C131.2 261.426 130.864 260.922 130.636 260.368C130.408 259.813 130.292 259.219 130.295 258.619C130.295 256.097 132.366 254.05 134.853 254.05H145.588C143.988 251.279 143.149 248.134 143.156 244.934V112.378C143.157 109.978 143.632 107.601 144.553 105.385C145.473 103.168 146.823 101.154 148.523 99.4587C150.223 97.7633 152.241 96.4195 154.462 95.5041C156.682 94.5887 159.061 94.1197 161.463 94.1239H175.161V89.5318C175.163 87.1315 175.637 84.7549 176.558 82.538C177.479 80.3212 178.828 78.3075 180.529 76.6121C182.229 74.9167 184.247 73.5729 186.467 72.6575C188.688 71.7422 191.067 71.2732 193.469 71.2774H303.166C305.568 71.272 307.947 71.7401 310.168 72.6551C312.389 73.57 314.408 74.9138 316.108 76.6094C317.809 78.305 319.158 80.3192 320.078 82.5366C320.999 84.754 321.473 87.1311 321.473 89.5318V222.088C321.473 225.409 320.586 228.521 319.036 231.203H344.329C346.858 231.203 348.906 233.232 348.906 235.773C348.906 238.295 346.872 240.342 344.334 240.342H289.467V244.934C289.467 248.256 288.58 251.368 287.03 254.05H289.481C291.996 254.05 294.039 256.079 294.039 258.619C294.039 261.142 291.968 263.189 289.481 263.189H277.454L271.215 254.05C276.244 254.05 280.323 249.983 280.323 244.888V112.164C280.323 107.229 276.372 103.262 271.498 103.262H161.125C156.251 103.262 152.3 107.247 152.3 112.164V244.888C152.3 249.947 156.415 254.05 161.404 254.05H196.107H213.458L225.571 263.189H211.183H182.406H134.853ZM303.225 231.203H289.467V112.378C289.467 109.978 288.993 107.601 288.073 105.383C287.152 103.166 285.803 101.152 284.103 99.456C282.402 97.7604 280.384 96.4166 278.163 95.5017C275.942 94.5867 273.562 94.1185 271.16 94.1239H184.306V89.5546C184.307 87.1392 185.265 84.8223 186.969 83.1101C188.674 81.3978 190.988 80.4293 193.405 80.416H303.225C308.25 80.416 312.328 84.4918 312.328 89.5546V222.065C312.327 224.481 311.369 226.798 309.663 228.511C307.957 230.223 305.643 231.191 303.225 231.203Z"
        fill="#D7D7D7"
      />
      <path
        fillRule="evenodd"
        clipRule="evenodd"
        d="M68.0556 218.625H72.6735C73.2719 218.637 73.8417 218.883 74.2606 219.31C74.6795 219.737 74.914 220.311 74.9139 220.909C74.9139 222.171 73.9309 223.194 72.6735 223.194H68.0556V227.809C68.0436 228.407 67.7975 228.977 67.37 229.395C66.9426 229.814 66.3679 230.048 65.7695 230.048C65.4718 230.053 65.176 229.999 64.8995 229.888C64.6229 229.778 64.371 229.614 64.1584 229.406C63.9457 229.198 63.7765 228.949 63.6607 228.675C63.5448 228.401 63.4845 228.107 63.4833 227.809V223.194H58.8654C58.267 223.182 57.6972 222.936 57.2783 222.509C56.8595 222.082 56.6249 221.508 56.625 220.909C56.625 219.648 57.608 218.625 58.8654 218.625H63.4833V214.01C63.4953 213.412 63.7415 212.842 64.1689 212.424C64.5963 212.005 65.171 211.771 65.7695 211.771C67.0314 211.771 68.0556 212.753 68.0556 214.01V218.625ZM446.059 187.795V183.18C446.058 182.882 445.998 182.588 445.882 182.314C445.766 182.04 445.597 181.791 445.384 181.583C445.171 181.375 444.92 181.211 444.643 181.101C444.366 180.99 444.071 180.936 443.773 180.941C443.175 180.941 442.6 181.175 442.172 181.594C441.745 182.012 441.499 182.582 441.487 183.18V187.795H436.869C436.571 187.796 436.277 187.856 436.002 187.972C435.728 188.088 435.48 188.257 435.271 188.469C435.063 188.682 434.899 188.934 434.788 189.21C434.678 189.486 434.624 189.782 434.629 190.079C434.629 191.304 435.634 192.364 436.869 192.364H441.487V196.979C441.487 198.236 442.511 199.218 443.773 199.218C444.371 199.218 444.946 198.984 445.374 198.565C445.801 198.147 446.047 197.577 446.059 196.979V192.364H450.677C451.934 192.364 452.917 191.341 452.917 190.079C452.918 189.481 452.683 188.907 452.264 188.48C451.845 188.053 451.275 187.807 450.677 187.795H446.059ZM128.296 63.281H135.109C137.029 63.281 138.584 64.8025 138.584 66.7079C138.584 68.5996 137.029 70.1349 135.109 70.1349H128.296V76.9432C128.296 78.8623 126.773 80.4159 124.867 80.4159C124.413 80.4129 123.965 80.3207 123.547 80.1446C123.13 79.9684 122.751 79.7118 122.433 79.3893C122.114 79.0669 121.862 78.6849 121.692 78.2652C121.521 77.8455 121.435 77.3963 121.438 76.9432V70.1349H114.625C114.171 70.1392 113.721 70.0537 113.301 69.8836C112.88 69.7134 112.498 69.4619 112.175 69.1434C111.852 68.8249 111.595 68.4458 111.419 68.0279C111.243 67.6099 111.152 67.1613 111.15 66.7079C111.15 64.8163 112.705 63.281 114.625 63.281H121.438V56.4727C121.438 54.5536 122.96 53 124.867 53C126.76 53 128.296 54.5536 128.296 56.4727V63.281ZM84.5722 258.619C84.5722 256.097 86.6435 254.05 89.1308 254.05H116.592C119.106 254.05 121.15 256.079 121.15 258.619C121.15 261.142 119.079 263.189 116.592 263.189H89.1308C88.5308 263.189 87.9366 263.071 87.3824 262.842C86.8282 262.612 86.3248 262.275 85.9012 261.851C85.4776 261.426 85.1421 260.922 84.9141 260.368C84.686 259.813 84.5698 259.219 84.5722 258.619ZM170.589 121.54C170.589 120.329 171.07 119.167 171.927 118.31C172.783 117.454 173.945 116.972 175.157 116.97H225.456C226.669 116.97 227.831 117.452 228.689 118.309C229.546 119.166 230.028 120.328 230.028 121.54C230.028 122.752 229.546 123.914 228.689 124.771C227.831 125.628 226.669 126.109 225.456 126.109H175.161C174.56 126.111 173.965 125.994 173.41 125.765C172.854 125.536 172.349 125.199 171.924 124.775C171.499 124.35 171.163 123.846 170.933 123.29C170.704 122.735 170.587 122.14 170.589 121.54ZM170.589 144.386C170.589 141.864 172.624 139.817 175.129 139.817H248.349C250.855 139.817 252.889 141.846 252.889 144.386C252.889 146.909 250.855 148.956 248.349 148.956H175.129C174.531 148.955 173.938 148.836 173.385 148.606C172.833 148.376 172.331 148.039 171.909 147.614C171.487 147.189 171.153 146.686 170.927 146.132C170.7 145.578 170.586 144.985 170.589 144.386ZM170.589 167.233C170.589 164.711 172.628 162.664 175.152 162.664H207.176C209.695 162.664 211.739 164.692 211.739 167.233C211.739 169.755 209.7 171.802 207.176 171.802H175.152C174.552 171.803 173.957 171.686 173.402 171.457C172.848 171.227 172.344 170.891 171.92 170.466C171.496 170.041 171.16 169.537 170.931 168.982C170.703 168.427 170.587 167.833 170.589 167.233ZM83.7167 139.817C81.9154 139.817 80.1317 139.462 78.4675 138.774C76.8034 138.085 75.2912 137.075 74.0175 135.802C72.7438 134.529 71.7335 133.018 71.0441 131.355C70.3548 129.692 70 127.909 70 126.109C70 124.309 70.3548 122.526 71.0441 120.863C71.7335 119.2 72.7438 117.689 74.0175 116.416C75.2912 115.143 76.8034 114.133 78.4675 113.445C80.1317 112.756 81.9154 112.401 83.7167 112.401C87.3546 112.401 90.8435 113.845 93.4159 116.416C95.9883 118.987 97.4334 122.473 97.4334 126.109C97.4334 129.745 95.9883 133.231 93.4159 135.802C90.8435 138.373 87.3546 139.817 83.7167 139.817ZM83.7167 132.963C84.6175 132.963 85.5094 132.786 86.3417 132.442C87.1739 132.097 87.9301 131.592 88.5671 130.956C89.2041 130.32 89.7094 129.564 90.0541 128.732C90.3988 127.901 90.5763 127.009 90.5763 126.109C90.5763 125.209 90.3988 124.318 90.0541 123.486C89.7094 122.654 89.2041 121.899 88.5671 121.262C87.9301 120.626 87.1739 120.121 86.3417 119.776C85.5094 119.432 84.6175 119.255 83.7167 119.255C81.898 119.255 80.1538 119.978 78.8679 121.263C77.582 122.548 76.8596 124.291 76.8596 126.109C76.8596 127.927 77.582 129.67 78.8679 130.955C80.1538 132.24 81.898 132.963 83.7167 132.963ZM387.195 92.4011C383.557 92.4011 380.068 90.9569 377.496 88.3861C374.924 85.8154 373.478 82.3287 373.478 78.6932C373.478 75.0576 374.924 71.5709 377.496 69.0002C380.068 66.4294 383.557 64.9852 387.195 64.9852C390.833 64.9852 394.322 66.4294 396.894 69.0002C399.467 71.5709 400.912 75.0576 400.912 78.6932C400.912 82.3287 399.467 85.8154 396.894 88.3861C394.322 90.9569 390.833 92.4011 387.195 92.4011ZM387.195 85.5471C388.096 85.5473 388.988 85.3701 389.82 85.0258C390.652 84.6814 391.409 84.1766 392.046 83.5401C392.683 82.9036 393.188 82.148 393.533 81.3163C393.877 80.4847 394.055 79.5933 394.055 78.6932C394.055 77.793 393.877 76.9016 393.533 76.07C393.188 75.2383 392.683 74.4827 392.046 73.8462C391.409 73.2098 390.652 72.7049 389.82 72.3606C388.988 72.0162 388.096 71.839 387.195 71.8392C385.376 71.8395 383.632 72.5618 382.346 73.8471C381.06 75.1324 380.338 76.8756 380.338 78.6932C380.338 80.5107 381.06 82.2539 382.346 83.5392C383.632 84.8246 385.376 85.5468 387.195 85.5471Z"
        fill="#D7D7D7"
      />
      <path
        d="M280.727 0C256.643 0 234.794 9.59177 218.8 25.1514C208.446 15.9346 194.792 10.3276 179.834 10.3276C163.469 10.3276 148.665 17.0388 138.036 27.8456C134.038 27.295 129.957 27.0107 125.813 27.0107C76.7628 27.0107 37 66.7735 37 115.823C37 162.252 72.6244 200.357 118.032 204.3V204.636L124.501 204.3V194.636L123.195 194.593C80.8813 193.214 47 158.474 47 115.823C47 72.2963 82.2856 37.0107 125.813 37.0107C130.326 37.0107 134.746 37.3895 139.046 38.1161L141.764 38.5754L143.603 36.522C152.513 26.575 165.441 20.3276 179.834 20.3276C193.801 20.3276 206.386 26.2101 215.262 35.6471L218.953 39.5716L222.591 35.5987C237.007 19.8587 257.712 10 280.727 10C324.254 10 359.54 45.2856 359.54 88.8126C359.54 90.0157 359.513 91.2121 359.46 92.4013L359.247 97.1577L363.987 97.603C388.676 99.9225 408 120.713 408 146.012C408 171.284 388.716 192.058 364.064 194.413L361.733 194.636V205L369.539 204.636V203.757C397.074 198.943 418 174.924 418 146.012C418 117.1 397.074 93.0801 369.538 88.2659C369.244 39.4677 329.595 0 280.727 0Z"
        fill="#D9D9D9"
      />
    </g>
    <path
      d="M100.002 347V321.654H104.03L118.66 341.908L117.482 344.188V321.654H121.472V347H117.71L102.662 326.328L103.992 324.466V347H100.002ZM135.443 347.57C132.352 347.57 130.047 346.696 128.527 344.948C127.032 343.2 126.285 340.705 126.285 337.462C126.285 334.017 127.058 331.496 128.603 329.9C130.174 328.279 132.428 327.468 135.367 327.468C137.47 327.468 139.205 327.861 140.573 328.646C141.941 329.406 142.954 330.533 143.613 332.028C144.272 333.523 144.601 335.334 144.601 337.462C144.601 340.679 143.803 343.175 142.207 344.948C140.636 346.696 138.382 347.57 135.443 347.57ZM135.405 344.188C136.697 344.188 137.723 343.909 138.483 343.352C139.243 342.769 139.788 341.971 140.117 340.958C140.472 339.945 140.649 338.779 140.649 337.462C140.649 335.993 140.472 334.764 140.117 333.776C139.762 332.788 139.205 332.053 138.445 331.572C137.685 331.065 136.672 330.812 135.405 330.812C134.138 330.812 133.125 331.078 132.365 331.61C131.605 332.142 131.06 332.902 130.731 333.89C130.402 334.878 130.237 336.069 130.237 337.462C130.237 339.565 130.63 341.211 131.415 342.402C132.2 343.593 133.53 344.188 135.405 344.188ZM160.231 347V321.654H169.123C173.227 321.654 176.279 322.718 178.281 324.846C180.282 326.974 181.283 330.128 181.283 334.308C181.283 338.488 180.282 341.655 178.281 343.808C176.279 345.936 173.227 347 169.123 347H160.231ZM164.411 343.466H168.705C171.542 343.466 173.632 342.744 174.975 341.3C176.317 339.831 176.989 337.5 176.989 334.308C176.989 331.141 176.317 328.823 174.975 327.354C173.632 325.885 171.542 325.15 168.705 325.15H164.411V343.466ZM193.007 347.57C192.019 347.57 191.069 347.469 190.157 347.266C189.245 347.089 188.409 346.772 187.649 346.316C186.915 345.86 186.319 345.239 185.863 344.454C185.433 343.643 185.217 342.643 185.217 341.452C185.217 340.033 185.496 338.868 186.053 337.956C186.611 337.044 187.409 336.36 188.447 335.904C189.486 335.448 190.727 335.22 192.171 335.22C193.134 335.22 193.995 335.296 194.755 335.448C195.541 335.6 196.237 335.815 196.845 336.094C197.479 336.347 198.011 336.639 198.441 336.968L198.859 339.59C198.302 339.21 197.555 338.893 196.617 338.64C195.68 338.361 194.667 338.222 193.577 338.222C192.133 338.222 191.031 338.475 190.271 338.982C189.537 339.489 189.169 340.249 189.169 341.262C189.169 342.022 189.385 342.643 189.815 343.124C190.246 343.58 190.778 343.922 191.411 344.15C192.07 344.353 192.754 344.454 193.463 344.454C194.958 344.454 196.06 344.353 196.769 344.15C197.479 343.947 197.833 343.479 197.833 342.744V334.764C197.833 333.421 197.428 332.446 196.617 331.838C195.807 331.205 194.654 330.888 193.159 330.888C192.095 330.888 190.993 331.065 189.853 331.42C188.713 331.749 187.776 332.218 187.041 332.826V329.102C187.751 328.621 188.777 328.241 190.119 327.962C191.487 327.658 192.893 327.506 194.337 327.506C195.047 327.506 195.756 327.582 196.465 327.734C197.2 327.861 197.884 328.076 198.517 328.38C199.151 328.659 199.708 329.051 200.189 329.558C200.696 330.039 201.089 330.635 201.367 331.344C201.646 332.053 201.785 332.889 201.785 333.852V342.972C201.785 344.213 201.393 345.176 200.607 345.86C199.847 346.519 198.809 346.962 197.491 347.19C196.174 347.443 194.679 347.57 193.007 347.57ZM214.194 347.494C212.471 347.494 211.103 347.038 210.09 346.126C209.102 345.214 208.608 343.871 208.608 342.098V331.23H205.53V327.924H208.608V322.604H212.712V327.924H217.348V331.23H212.712V341.3C212.712 342.187 212.864 342.858 213.168 343.314C213.497 343.745 214.093 343.96 214.954 343.96C215.385 343.96 215.815 343.909 216.246 343.808C216.677 343.681 217.044 343.529 217.348 343.352V346.886C216.892 347.089 216.373 347.241 215.79 347.342C215.233 347.443 214.701 347.494 214.194 347.494ZM228.892 347.57C227.904 347.57 226.954 347.469 226.042 347.266C225.13 347.089 224.294 346.772 223.534 346.316C222.799 345.86 222.204 345.239 221.748 344.454C221.317 343.643 221.102 342.643 221.102 341.452C221.102 340.033 221.381 338.868 221.938 337.956C222.495 337.044 223.293 336.36 224.332 335.904C225.371 335.448 226.612 335.22 228.056 335.22C229.019 335.22 229.88 335.296 230.64 335.448C231.425 335.6 232.122 335.815 232.73 336.094C233.363 336.347 233.895 336.639 234.326 336.968L234.744 339.59C234.187 339.21 233.439 338.893 232.502 338.64C231.565 338.361 230.551 338.222 229.462 338.222C228.018 338.222 226.916 338.475 226.156 338.982C225.421 339.489 225.054 340.249 225.054 341.262C225.054 342.022 225.269 342.643 225.7 343.124C226.131 343.58 226.663 343.922 227.296 344.15C227.955 344.353 228.639 344.454 229.348 344.454C230.843 344.454 231.945 344.353 232.654 344.15C233.363 343.947 233.718 343.479 233.718 342.744V334.764C233.718 333.421 233.313 332.446 232.502 331.838C231.691 331.205 230.539 330.888 229.044 330.888C227.98 330.888 226.878 331.065 225.738 331.42C224.598 331.749 223.661 332.218 222.926 332.826V329.102C223.635 328.621 224.661 328.241 226.004 327.962C227.372 327.658 228.778 327.506 230.222 327.506C230.931 327.506 231.641 327.582 232.35 327.734C233.085 327.861 233.769 328.076 234.402 328.38C235.035 328.659 235.593 329.051 236.074 329.558C236.581 330.039 236.973 330.635 237.252 331.344C237.531 332.053 237.67 332.889 237.67 333.852V342.972C237.67 344.213 237.277 345.176 236.492 345.86C235.732 346.519 234.693 346.962 233.376 347.19C232.059 347.443 230.564 347.57 228.892 347.57ZM254.266 347V321.654H270.53V325.188H258.446V332.75H269.01V336.322H258.446V347H254.266ZM282.248 347.57C279.157 347.57 276.852 346.696 275.332 344.948C273.837 343.2 273.09 340.705 273.09 337.462C273.09 334.017 273.862 331.496 275.408 329.9C276.978 328.279 279.233 327.468 282.172 327.468C284.274 327.468 286.01 327.861 287.378 328.646C288.746 329.406 289.759 330.533 290.418 332.028C291.076 333.523 291.406 335.334 291.406 337.462C291.406 340.679 290.608 343.175 289.012 344.948C287.441 346.696 285.186 347.57 282.248 347.57ZM282.21 344.188C283.502 344.188 284.528 343.909 285.288 343.352C286.048 342.769 286.592 341.971 286.922 340.958C287.276 339.945 287.454 338.779 287.454 337.462C287.454 335.993 287.276 334.764 286.922 333.776C286.567 332.788 286.01 332.053 285.25 331.572C284.49 331.065 283.476 330.812 282.21 330.812C280.943 330.812 279.93 331.078 279.17 331.61C278.41 332.142 277.865 332.902 277.536 333.89C277.206 334.878 277.042 336.069 277.042 337.462C277.042 339.565 277.434 341.211 278.22 342.402C279.005 343.593 280.335 344.188 282.21 344.188ZM304.482 347.57C302.734 347.57 301.227 347.291 299.96 346.734C298.719 346.151 297.756 345.29 297.072 344.15C296.388 343.01 296.046 341.591 296.046 339.894V327.924H300.036V339.324C300.036 340.945 300.391 342.149 301.1 342.934C301.835 343.694 302.962 344.074 304.482 344.074C306.002 344.074 307.117 343.694 307.826 342.934C308.561 342.149 308.928 340.945 308.928 339.324V327.924H312.766V339.894C312.766 342.427 312.032 344.34 310.562 345.632C309.118 346.924 307.092 347.57 304.482 347.57ZM318.386 329.482C318.944 329.203 319.564 328.95 320.248 328.722C320.958 328.469 321.705 328.253 322.49 328.076C323.276 327.899 324.074 327.759 324.884 327.658C325.695 327.557 326.48 327.506 327.24 327.506C329.039 327.506 330.508 327.759 331.648 328.266C332.788 328.747 333.637 329.507 334.194 330.546C334.752 331.559 335.03 332.839 335.03 334.384V347H331.04V334.916C331.04 334.435 330.977 333.966 330.85 333.51C330.749 333.029 330.534 332.598 330.204 332.218C329.9 331.813 329.444 331.496 328.836 331.268C328.254 331.04 327.481 330.926 326.518 330.926C325.834 330.926 325.125 330.989 324.39 331.116C323.681 331.243 323.01 331.42 322.376 331.648V347H318.386V329.482ZM349.088 347.57C347.923 347.57 346.783 347.418 345.668 347.114C344.553 346.835 343.54 346.329 342.628 345.594C341.716 344.834 340.994 343.783 340.462 342.44C339.93 341.097 339.664 339.362 339.664 337.234C339.664 334.219 340.399 331.838 341.868 330.09C343.337 328.342 345.567 327.468 348.556 327.468C349.037 327.468 349.633 327.531 350.342 327.658C351.051 327.785 351.773 327.975 352.508 328.228C353.243 328.456 353.863 328.76 354.37 329.14L353.344 330.47V319.944H357.296V343.01C357.296 343.795 357.043 344.479 356.536 345.062C356.055 345.645 355.409 346.126 354.598 346.506C353.787 346.861 352.901 347.127 351.938 347.304C350.975 347.481 350.025 347.57 349.088 347.57ZM349.202 344.112C350.342 344.112 351.317 343.973 352.128 343.694C352.939 343.415 353.344 343.048 353.344 342.592V331.99C352.685 331.61 351.989 331.331 351.254 331.154C350.519 330.977 349.81 330.888 349.126 330.888C347.885 330.888 346.859 331.141 346.048 331.648C345.263 332.129 344.68 332.851 344.3 333.814C343.92 334.751 343.73 335.917 343.73 337.31C343.73 338.577 343.882 339.729 344.186 340.768C344.49 341.781 345.035 342.592 345.82 343.2C346.631 343.808 347.758 344.112 349.202 344.112Z"
      fill="#D7D7D7"
    />
    <defs>
      <clipPath id="clip0_2465_28141">
        <rect width="457" height="277" fill="white" />
      </clipPath>
    </defs>
  </svg>
