<svg width="24" height="24" viewBox="0 0 24 24" fill="none" xmlns="http://www.w3.org/2000/svg">
<path d="M17.6386 9.27403C17.6386 7.82716 17.0638 6.43955 16.0407 5.41646C15.0176 4.39337 13.63 3.8186 12.1831 3.8186C10.7363 3.8186 9.34866 4.39337 8.32557 5.41646C7.30248 6.43955 6.72771 7.82716 6.72771 9.27403C6.72771 15.6387 4 17.4572 4 17.4572H20.3663C20.3663 17.4572 17.6386 15.6387 17.6386 9.27403Z" stroke="currentColor" stroke-width="1.5" stroke-linecap="round" stroke-linejoin="round"/>
<path d="M13.7561 21.094C13.5962 21.3696 13.3668 21.5983 13.0907 21.7573C12.8147 21.9163 12.5017 22 12.1831 22C11.8645 22 11.5515 21.9163 11.2755 21.7573C10.9994 21.5983 10.77 21.3696 10.6101 21.094" stroke="currentColor" stroke-width="1.5" stroke-linecap="round" stroke-linejoin="round"/>
</svg>
