<svg width="38" height="38" viewBox="0 0 38 38" fill="none" xmlns="http://www.w3.org/2000/svg">
<circle opacity="0.1" cx="19" cy="19" r="19" fill="currentColor"/>
<path d="M23.2289 16.9555C23.2289 15.8704 22.7978 14.8297 22.0305 14.0623C21.2632 13.295 20.2225 12.864 19.1374 12.864C18.0522 12.864 17.0115 13.295 16.2442 14.0623C15.4769 14.8297 15.0458 15.8704 15.0458 16.9555C15.0458 19.3406 14.5351 20.8744 14.024 21.8123C13.7873 22.2466 14.1567 23.0929 14.6514 23.0929H23.6233C24.118 23.0929 24.4874 22.2466 24.2507 21.8123C23.7396 20.8744 23.2289 19.3406 23.2289 16.9555Z" stroke="currentColor" stroke-width="1.5" stroke-linecap="round" stroke-linejoin="round"/>
<path d="M20.317 25.8205C20.1971 26.0272 20.025 26.1987 19.818 26.318C19.6109 26.4372 19.3762 26.5 19.1373 26.5C18.8983 26.5 18.6636 26.4372 18.4565 26.318C18.2495 26.1987 18.0774 26.0272 17.9575 25.8205" stroke="currentColor" stroke-width="1.5" stroke-linecap="round" stroke-linejoin="round"/>
</svg>
