<svg width="38" height="38" viewBox="0 0 38 38" fill="none" xmlns="http://www.w3.org/2000/svg">
<circle opacity="0.1" cx="19" cy="19" r="19" fill="currentColor"/>
<path d="M25 26.0328V24.5328C25 23.7372 24.6839 22.9741 24.1213 22.4115C23.5587 21.8489 22.7956 21.5328 22 21.5328H16C15.2044 21.5328 14.4413 21.8489 13.8787 22.4115C13.3161 22.9741 13 23.7372 13 24.5328V26.0328" stroke="currentColor" stroke-width="1.5" stroke-linecap="round" stroke-linejoin="round"/>
<path d="M19 18.5328C20.6569 18.5328 22 17.1897 22 15.5328C22 13.876 20.6569 12.5328 19 12.5328C17.3431 12.5328 16 13.876 16 15.5328C16 17.1897 17.3431 18.5328 19 18.5328Z" stroke="currentColor" stroke-width="1.5" stroke-linecap="round" stroke-linejoin="round"/>
</svg>
