<svg width="38" height="38" viewBox="0 0 38 38" fill="none" xmlns="http://www.w3.org/2000/svg">
<circle opacity="0.2" cx="19" cy="19" r="19" fill="white"/>
<g clip-path="url(#clip0_8523_117)">
<path d="M21.2036 14.5C21.9361 14.6429 22.6094 15.0012 23.1371 15.529C23.6649 16.0567 24.0232 16.7299 24.1661 17.4625M21.2036 11.5C22.7255 11.6691 24.1448 12.3506 25.2283 13.4328C26.3118 14.5149 26.9951 15.9333 27.1661 17.455M26.4161 23.44V25.69C26.4169 25.8989 26.3741 26.1056 26.2905 26.297C26.2068 26.4884 26.0841 26.6602 25.9301 26.8014C25.7762 26.9426 25.5945 27.0501 25.3966 27.117C25.1988 27.1839 24.9891 27.2088 24.7811 27.19C22.4732 26.9392 20.2563 26.1506 18.3086 24.8875C16.4965 23.736 14.9601 22.1996 13.8086 20.3875C12.5411 18.4309 11.7523 16.2032 11.5061 13.885C11.4873 13.6776 11.512 13.4686 11.5785 13.2712C11.6449 13.0739 11.7518 12.8925 11.8922 12.7387C12.0326 12.5849 12.2034 12.462 12.3939 12.3779C12.5844 12.2938 12.7903 12.2502 12.9986 12.25H15.2486C15.6126 12.2464 15.9654 12.3753 16.2414 12.6126C16.5174 12.85 16.6976 13.1796 16.7486 13.54C16.8436 14.26 17.0197 14.967 17.2736 15.6475C17.3745 15.9159 17.3963 16.2077 17.3365 16.4882C17.2767 16.7686 17.1377 17.0261 16.9361 17.23L16.253 17.9131C16.0939 18.0722 16.0598 18.3187 16.1772 18.5107C17.1692 20.1333 18.5328 21.4969 20.1554 22.4889C20.3474 22.6063 20.5939 22.5722 20.753 22.4131L21.4361 21.73C21.64 21.5284 21.8975 21.3894 22.1779 21.3296C22.4584 21.2698 22.7501 21.2916 23.0186 21.3925C23.699 21.6464 24.406 21.8225 25.1261 21.9175C25.4904 21.9689 25.8231 22.1524 26.061 22.4331C26.2988 22.7138 26.4252 23.0722 26.4161 23.44Z" stroke="white" stroke-width="1.5" stroke-linecap="round" stroke-linejoin="round"/>
</g>
<defs>
<clipPath id="clip0_8523_117">
<rect width="18" height="18" fill="white" transform="translate(10 10)"/>
</clipPath>
</defs>
</svg>
